ply
format ascii 1.0
element vertex 24
property float x
property float y
property float z
property float nx
property float ny
property float nz
property uchar red
property uchar green
property uchar blue
property uchar alpha
element face 36
property list uchar int vertex_indices
end_header
-2.0 -2.0 -2.0  0.0  1.0  0.0 0 255 0 255
-1.0 -2.0 -2.0  0.0  1.0  0.0 0 255 0 255
-1.0 -2.0 -1.0  0.0  1.0  0.0 0 255 0 255
-2.0 -2.0 -1.0  0.0  1.0  0.0 0 255 0 255
-2.0 -1.0 -2.0  0.0  1.0  0.0 0 255 0 255
-1.0 -1.0 -2.0  0.0  1.0  0.0 0 255 0 255
-1.0 -1.0 -1.0  0.0  1.0  0.0 0 255 0 255
-2.0 -1.0 -1.0  0.0  1.0  0.0 0 255 0 255
-1.0 -1.0 -1.0  0.0  0.0  0.0 150 0 150 255
 1.0 -1.0 -1.0  0.0  0.0  0.0 150 0 150 255
 1.0 -1.0  1.0  0.0  0.0  0.0 150 0 150 255
-1.0 -1.0  1.0  0.0  0.0  0.0 150 0 150 255
-1.0  1.0 -1.0  0.0  0.0  0.0 150 0 150 255
 1.0  1.0 -1.0  0.0  0.0  0.0 150 0 150 255
 1.0  1.0  1.0  0.0  0.0  0.0 150 0 150 255
-1.0  1.0  1.0  0.0  0.0  0.0 150 0 150 255
0.25 0.25 0.25  1.0  1.0  1.0 0 255 255 255
1.75 0.25 0.25  1.0  1.0  1.0 0 255 255 255
1.75 0.25 1.75  1.0  1.0  1.0 0 255 255 255
0.25 0.25 1.75  1.0  1.0  1.0 0 255 255 255
0.25 1.75 0.25  1.0  1.0  1.0 0 255 255 255
1.75 1.75 0.25  1.0  1.0  1.0 0 255 255 255
1.75 1.75 1.75  1.0  1.0  1.0 0 255 255 255
0.25 1.75 1.75  1.0  1.0  1.0 0 255 255 255
3  0  1  2
3  0  2  3
3  4  5  6
3  4  6  7
3  0  1  5
3  0  5  4
3  3  2  6
3  3  6  7
3  1  2  6
3  1  6  5
3  3  0  4
3  3  4  7
3  8  9 10
3  8 10 11
3 12 13 14
3 12 14 15
3  8  9 13
3  8 13 12
3 11 10 14
3 11 14 15
3  9 10 14
3  9 14 13
3 11  8 12
3 11 12 15
3 16 17 18
3 16 18 19
3 20 21 22
3 20 22 23
3 16 17 21
3 16 21 20
3 19 18 22
3 19 22 23
3 17 18 22
3 17 22 21
3 19 16 20
3 19 20 23
